<svg xmlns="http://www.w3.org/2000/svg" viewBox="0 0 1636.86 491.42"><defs><style>.cls-1,.cls-4{fill:#0de3ff;}.cls-1,.cls-2{stroke:#fff;stroke-miterlimit:10;}.cls-2{fill:#292929;}.cls-3{fill:#fff;}</style></defs><g id="Layer_2" data-name="Layer 2"><g id="Layer_1-2" data-name="Layer 1"><g id="Layer_2-2" data-name="Layer 2"><g id="Layer_1-2-2" data-name="Layer 1-2"><g id="fpBMvJ"><ellipse class="cls-1" cx="200.16" cy="439.17" rx="199.68" ry="24" transform="translate(-5.43 2.51) rotate(-0.71)"/><path class="cls-2" d="M334.06,181.44c-11.44.54-22.55,1.29-33.68,1.53-7.44.16-11.83-5.78-7.56-11.35,5.8-7.57,4.4-15.47,4.44-23.5.09-23.82-3-22.87,21.94-22.78,2.91,0,5.83-.23,8.22-.33.17-14.21.47-28,.47-41.76,0-14.73-.49-29.46-.4-44.19C327.64,16.58,342.75.63,363.67.5S399.73,16,400.26,38.8q.81,35.34,1.06,70.7c0,4.69-1.06,9.38-1.72,14.72l20.94-.19c11.5-.11,12.13.45,12.36,11.62.14,6.19-.35,12.44.44,18.54a40.23,40.23,0,0,0,4.37,13.67c3.92,7.24,1.37,13.07-6.83,13.5-5.58.29-11.19.2-16.79.17s-11.13-.22-18.27-.37c.62,28.57,1.33,55.91,1.78,83.26.52,32.1.94,64.21,1.09,96.32,0,5.18-1.44,10.39-2.39,15.56-2.55,13.83-5.89,27.55-7.6,41.48-1.56,12.74-8.67,20.79-20.59,20.62-11.09-.15-17.92-8.49-19.57-20.89-1.74-13-5.24-25.81-7.87-38.72-1.38-6.84-3.51-13.71-3.64-20.59-1-56-1.58-111.92-2.31-167.88C334.69,188,334.38,185.71,334.06,181.44Zm6.74,2.49a36,36,0,0,0-.47,4.27q1.17,88.31,2.39,176.59c0,3.41,1.59,6.8,2.36,10.22,3.07,13.7,6.82,27.3,8.93,41.15,1.73,11.28,5.77,16.89,15.18,16.6,8.8-.27,12.61-5.81,13.95-16.89,1.55-12.78,4.38-25.4,6.64-38.09,1.17-6.58,3.33-13.17,3.3-19.75-.19-40.91-.95-81.82-1.37-122.73-.18-17.33,0-34.67,0-52.06Z"/><path class="cls-3" d="M341.28,184.16l1,181,12.39,57.21s5.61,13.79,14.61,10.79c0,0,10.3-.47,11.15-7.24l12.88-62.18-2-180.58Z"/><path class="cls-4" d="M381.58,271.14c1.83,6.78,4.09,11.47,4.2,16.21.6,25.33.7,50.66.82,76,0,2.87-.91,5.75-1.48,8.6-2.84,14.05-6,28-8.41,42.15-.88,5.12-.6,10.8-7.23,11.19-6.92.41-8.05-5.19-9.2-10.69-3-14.32-6.4-28.55-9.52-42.84a59.4,59.4,0,0,1-1.7-11.33q-.63-36.23-.85-72.45c0-8.66,3.29-16.55,12.1-18.35C366.88,268.27,374.18,270.5,381.58,271.14Z"/><path class="cls-2" d="M486.67,145.82H595c100.33,0,158.52,57.78,158.52,138.85v.8c0,81.06-59,141.26-160.12,141.26H486.67ZM596.23,357.7c46.55,0,77.45-25.68,77.45-71v-.8c0-45-30.9-71-77.45-71H564.49V357.7Z"/><path class="cls-2" d="M789.25,209.62h76.24v43.74c12.44-29.69,32.51-49,68.63-47.35v80.26h-6.43c-39.73,0-62.2,22.88-62.2,73v67.42H789.25Z"/><path class="cls-2" d="M948.17,319.18v-.8c0-61.8,50.56-113.57,120.39-113.57,69.43,0,119.59,51,119.59,112.76v.81c0,61.8-50.56,113.57-120.39,113.57C998.33,432,948.17,381,948.17,319.18Zm165.74,0v-.8c0-26.49-19.26-49-46.15-49-27.69,0-45.35,22.07-45.35,48.15v.81c0,26.48,19.26,49,46.15,49C1096.25,367.34,1113.91,345.26,1113.91,319.18Z"/><path class="cls-2" d="M1220.25,209.62h76.24V238.5c14.85-18.06,33.31-33.71,65.81-33.71,51.77,0,96.32,42.94,96.32,112.36V318c0,70.63-44.55,113.56-95.92,113.56-32.9,0-52.17-14.84-66.21-31.3v90.7h-76.25Zm163.33,108.76v-.81c0-28.49-19.66-49-44.54-49-24.48,0-44.15,20.47-44.15,49v.81c0,28.89,19.67,49.36,44.15,49.36C1363.92,367.74,1383.58,347.67,1383.58,318.38Z"/><path class="cls-2" d="M1491.49,209.62h76.25v43.74c12.44-29.69,32.5-49,68.62-47.35v80.26h-6.42c-39.73,0-62.2,22.88-62.2,73v67.42h-76.25Z"/></g></g></g></g></g></svg>